<?xml version="1.0" encoding="utf-8"?>
<!-- Svg Vector Icons : http://www.onlinewebfonts.com/icon -->
<!DOCTYPE svg PUBLIC "-//W3C//DTD SVG 1.1//EN" "http://www.w3.org/Graphics/SVG/1.1/DTD/svg11.dtd">
<svg version="1.1" xmlns="http://www.w3.org/2000/svg" xmlns:xlink="http://www.w3.org/1999/xlink" x="0px" y="0px" viewBox="0 0 1000 1000" enable-background="new 0 0 1000 1000" xml:space="preserve">
<metadata> Svg Vector Icons : http://www.onlinewebfonts.com/icon </metadata>
<g><g transform="translate(0.000000,511.000000) scale(0.100000,-0.100000)"><path d="M317.6,4954.1c-85.8-43.9-117.8-75.8-161.7-161.7L100,4686.7V120c0-3439,6-4580.7,24-4632.5c35.9-107.8,95.8-173.7,203.6-227.5l99.8-49.9H5002h4574.7l105.8,55.9c85.8,43.9,117.8,75.8,161.7,161.7l55.9,105.8V108v4574.7l-49.9,99.8c-53.9,107.8-119.7,167.7-227.5,203.6c-51.9,18-1193.6,24-4632.5,24H423.3L317.6,4954.1z M9375.1,4708.6c75.8-27.9,183.6-133.7,217.5-211.6c24-53.9,27.9-754.5,27.9-4385c0-2997.9-6-4337.2-21.9-4377.1c-27.9-75.8-133.7-183.6-211.6-217.5c-95.8-41.9-8678.3-41.9-8774.1,0c-77.9,33.9-183.6,141.7-211.6,217.5c-29.9,79.8-29.9,8670.3,0,8750.2c27.9,73.8,131.7,183.6,207.6,217.6c49.9,22,810.4,25.9,4385.1,27.9C7995.9,4730.6,9335.2,4724.6,9375.1,4708.6z"/><path d="M1920.3,3359.4c2-10,281.4-429.1,616.7-934.1C3519,948.3,4349.3-361,5439.1-2145.4c259.5-427.1,514.9-844.3,562.9-922.1l89.8-145.7h1005.9h1005.9V70.1v3283.3H7093.7H6083.8l8-1836.2c4-1007.9,0-1828.3-6-1820.3c-6,8-373.2,634.7-816.3,1391.2c-443.1,758.5-922.1,1578.8-1067.8,1826.3l-263.5,449.1l-1013.9,6C2367.4,3371.3,1916.3,3367.4,1920.3,3359.4z"/><path d="M1916.3-574.6v-2618.7h978h978v1157.6V-878l-960,1443.1c-528.9,792.4-968,1449-978,1461C1924.3,2036.1,1916.3,934.3,1916.3-574.6z"/></g></g>
</svg>